<svg xmlns="http://www.w3.org/2000/svg" xmlns:xlink="http://www.w3.org/1999/xlink" width="180" zoomAndPan="magnify" viewBox="0 0 135 135.000003" height="180" preserveAspectRatio="xMidYMid meet" version="1.0"><defs><g/><clipPath id="cec39ee1a8"><path d="M 27.5 25 L 107.160156 25 L 107.160156 109 L 27.5 109 Z M 27.5 25 " clip-rule="nonzero"/></clipPath><clipPath id="2a302dbe72"><path d="M 2 0.226562 L 10 0.226562 L 10 10 L 2 10 Z M 2 0.226562 " clip-rule="nonzero"/></clipPath><clipPath id="dccf93e17b"><path d="M 20 0.226562 L 30 0.226562 L 30 10 L 20 10 Z M 20 0.226562 " clip-rule="nonzero"/></clipPath><clipPath id="05fab2ed3d"><path d="M 39 0.226562 L 44 0.226562 L 44 12 L 39 12 Z M 39 0.226562 " clip-rule="nonzero"/></clipPath><clipPath id="63e7326a72"><path d="M 54 0.226562 L 64 0.226562 L 64 10 L 54 10 Z M 54 0.226562 " clip-rule="nonzero"/></clipPath><clipPath id="0d98392674"><rect x="0" width="74" y="0" height="13"/></clipPath><clipPath id="37e30bccd6"><path d="M 0.0078125 1 L 3 1 L 3 5 L 0.0078125 5 Z M 0.0078125 1 " clip-rule="nonzero"/></clipPath><clipPath id="240f25c918"><path d="M 4 1 L 6 1 L 6 5.429688 L 4 5.429688 Z M 4 1 " clip-rule="nonzero"/></clipPath><clipPath id="12c8c33b95"><path d="M 11 1 L 13 1 L 13 5.429688 L 11 5.429688 Z M 11 1 " clip-rule="nonzero"/></clipPath><clipPath id="30fca8baf4"><rect x="0" width="15" y="0" height="6"/></clipPath><clipPath id="5d841fb20d"><path d="M 0.195312 19 L 29 19 L 29 41 L 0.195312 41 Z M 0.195312 19 " clip-rule="nonzero"/></clipPath><clipPath id="300318329a"><rect x="0" width="30" y="0" height="53"/></clipPath></defs><g clip-path="url(#cec39ee1a8)"><path fill="#ffffff" d="M 57.4375 27 C 68.230469 24.285156 79.132812 26.105469 88.097656 31.28125 C 97.238281 36.558594 104.363281 45.320312 107.308594 56.320312 C 107.375 56.5625 107.4375 56.804688 107.496094 57.046875 L 106.867188 57.269531 C 106.804688 57.007812 106.738281 56.75 106.667969 56.492188 C 103.769531 45.667969 96.757812 37.046875 87.765625 31.855469 C 78.820312 26.691406 67.917969 24.921875 57.152344 27.757812 C 57.25 27.507812 57.347656 27.253906 57.4375 27 Z M 28.128906 76.855469 C 28.179688 77.066406 28.234375 77.277344 28.292969 77.492188 C 31.191406 88.3125 38.203125 96.933594 47.195312 102.125 C 56.179688 107.3125 67.144531 109.074219 77.964844 106.183594 C 77.859375 106.433594 77.761719 106.6875 77.667969 106.945312 C 66.828125 109.714844 55.867188 107.898438 46.863281 102.699219 C 37.722656 97.425781 30.597656 88.660156 27.652344 77.664062 C 27.597656 77.464844 27.546875 77.269531 27.5 77.074219 Z M 28.128906 76.855469 " fill-opacity="1" fill-rule="evenodd"/></g><g transform="matrix(1, 0, 0, 1, 35, 61)"><g clip-path="url(#0d98392674)"><g clip-path="url(#2a302dbe72)"><g fill="#ffffff" fill-opacity="1"><g transform="translate(1.311426, 9.239078)"><g><path d="M 1.125 -8.703125 L 3.71875 -8.703125 C 4.832031 -8.703125 5.75 -8.488281 6.46875 -8.0625 C 7.1875 -7.632812 7.707031 -7.078125 8.03125 -6.390625 C 8.363281 -5.710938 8.53125 -4.984375 8.53125 -4.203125 C 8.53125 -3.359375 8.332031 -2.617188 7.9375 -1.984375 C 7.539062 -1.347656 7.007812 -0.859375 6.34375 -0.515625 C 5.675781 -0.171875 4.945312 0 4.15625 0 L 1.125 0 Z M 3.859375 -1.65625 C 4.742188 -1.65625 5.445312 -1.882812 5.96875 -2.34375 C 6.488281 -2.800781 6.75 -3.457031 6.75 -4.3125 C 6.75 -5.007812 6.601562 -5.5625 6.3125 -5.96875 C 6.03125 -6.382812 5.695312 -6.671875 5.3125 -6.828125 C 4.9375 -6.984375 4.578125 -7.0625 4.234375 -7.0625 L 2.84375 -7.0625 L 2.84375 -1.65625 Z M 3.859375 -1.65625 "/></g></g></g></g><g clip-path="url(#dccf93e17b)"><g fill="#ffffff" fill-opacity="1"><g transform="translate(19.887046, 9.239078)"><g><path d="M 0.59375 -4.34375 C 0.59375 -5.132812 0.789062 -5.867188 1.1875 -6.546875 C 1.582031 -7.234375 2.117188 -7.78125 2.796875 -8.1875 C 3.484375 -8.59375 4.226562 -8.796875 5.03125 -8.796875 C 5.820312 -8.796875 6.554688 -8.59375 7.234375 -8.1875 C 7.921875 -7.78125 8.46875 -7.234375 8.875 -6.546875 C 9.28125 -5.867188 9.484375 -5.132812 9.484375 -4.34375 C 9.484375 -3.539062 9.28125 -2.796875 8.875 -2.109375 C 8.46875 -1.429688 7.921875 -0.894531 7.234375 -0.5 C 6.554688 -0.101562 5.820312 0.09375 5.03125 0.09375 C 4.226562 0.09375 3.484375 -0.101562 2.796875 -0.5 C 2.117188 -0.894531 1.582031 -1.429688 1.1875 -2.109375 C 0.789062 -2.796875 0.59375 -3.539062 0.59375 -4.34375 Z M 2.359375 -4.34375 C 2.359375 -3.832031 2.476562 -3.363281 2.71875 -2.9375 C 2.96875 -2.519531 3.296875 -2.1875 3.703125 -1.9375 C 4.117188 -1.6875 4.582031 -1.5625 5.09375 -1.5625 C 5.570312 -1.5625 6.015625 -1.6875 6.421875 -1.9375 C 6.828125 -2.1875 7.144531 -2.519531 7.375 -2.9375 C 7.601562 -3.363281 7.71875 -3.832031 7.71875 -4.34375 C 7.71875 -4.863281 7.597656 -5.335938 7.359375 -5.765625 C 7.117188 -6.191406 6.796875 -6.523438 6.390625 -6.765625 C 5.984375 -7.015625 5.53125 -7.140625 5.03125 -7.140625 C 4.539062 -7.140625 4.09375 -7.015625 3.6875 -6.765625 C 3.28125 -6.523438 2.957031 -6.191406 2.71875 -5.765625 C 2.476562 -5.335938 2.359375 -4.863281 2.359375 -4.34375 Z M 2.359375 -4.34375 "/></g></g></g></g><g clip-path="url(#05fab2ed3d)"><g fill="#ffffff" fill-opacity="1"><g transform="translate(39.420245, 9.239078)"><g><path d="M 3.609375 -1.828125 C 3.609375 -1.085938 3.457031 -0.445312 3.15625 0.09375 C 2.863281 0.632812 2.445312 1.050781 1.90625 1.34375 C 1.375 1.632812 0.757812 1.789062 0.0625 1.8125 L 0.0625 0.140625 C 1.269531 0.078125 1.875 -0.59375 1.875 -1.875 L 1.875 -8.703125 L 3.609375 -8.703125 Z M 3.609375 -1.828125 "/></g></g></g></g><g clip-path="url(#63e7326a72)"><g fill="#ffffff" fill-opacity="1"><g transform="translate(53.609921, 9.239078)"><g><path d="M 0.59375 -4.34375 C 0.59375 -5.132812 0.789062 -5.867188 1.1875 -6.546875 C 1.582031 -7.234375 2.117188 -7.78125 2.796875 -8.1875 C 3.484375 -8.59375 4.226562 -8.796875 5.03125 -8.796875 C 5.820312 -8.796875 6.554688 -8.59375 7.234375 -8.1875 C 7.921875 -7.78125 8.46875 -7.234375 8.875 -6.546875 C 9.28125 -5.867188 9.484375 -5.132812 9.484375 -4.34375 C 9.484375 -3.539062 9.28125 -2.796875 8.875 -2.109375 C 8.46875 -1.429688 7.921875 -0.894531 7.234375 -0.5 C 6.554688 -0.101562 5.820312 0.09375 5.03125 0.09375 C 4.226562 0.09375 3.484375 -0.101562 2.796875 -0.5 C 2.117188 -0.894531 1.582031 -1.429688 1.1875 -2.109375 C 0.789062 -2.796875 0.59375 -3.539062 0.59375 -4.34375 Z M 2.359375 -4.34375 C 2.359375 -3.832031 2.476562 -3.363281 2.71875 -2.9375 C 2.96875 -2.519531 3.296875 -2.1875 3.703125 -1.9375 C 4.117188 -1.6875 4.582031 -1.5625 5.09375 -1.5625 C 5.570312 -1.5625 6.015625 -1.6875 6.421875 -1.9375 C 6.828125 -2.1875 7.144531 -2.519531 7.375 -2.9375 C 7.601562 -3.363281 7.71875 -3.832031 7.71875 -4.34375 C 7.71875 -4.863281 7.597656 -5.335938 7.359375 -5.765625 C 7.117188 -6.191406 6.796875 -6.523438 6.390625 -6.765625 C 5.984375 -7.015625 5.53125 -7.140625 5.03125 -7.140625 C 4.539062 -7.140625 4.09375 -7.015625 3.6875 -6.765625 C 3.28125 -6.523438 2.957031 -6.191406 2.71875 -5.765625 C 2.476562 -5.335938 2.359375 -4.863281 2.359375 -4.34375 Z M 2.359375 -4.34375 "/></g></g></g></g></g></g><g transform="matrix(1, 0, 0, 1, 61, 77)"><g clip-path="url(#30fca8baf4)"><g clip-path="url(#37e30bccd6)"><g fill="#ffffff" fill-opacity="1"><g transform="translate(0.404645, 4.295711)"><g><path d="M 0.234375 0.015625 C 0.210938 0.015625 0.195312 0.00390625 0.1875 -0.015625 C 0.175781 -0.0351562 0.171875 -0.0546875 0.171875 -0.078125 C 0.171875 -0.117188 0.175781 -0.140625 0.1875 -0.140625 C 0.207031 -0.148438 0.234375 -0.15625 0.265625 -0.15625 C 0.335938 -0.15625 0.390625 -0.164062 0.421875 -0.1875 C 0.460938 -0.21875 0.488281 -0.253906 0.5 -0.296875 C 0.507812 -0.335938 0.519531 -0.390625 0.53125 -0.453125 L 0.53125 -2.03125 C 0.519531 -2.09375 0.507812 -2.144531 0.5 -2.1875 C 0.488281 -2.226562 0.460938 -2.257812 0.421875 -2.28125 C 0.390625 -2.3125 0.335938 -2.328125 0.265625 -2.328125 L 0.25 -2.328125 C 0.21875 -2.328125 0.195312 -2.332031 0.1875 -2.34375 C 0.175781 -2.351562 0.171875 -2.375 0.171875 -2.40625 C 0.171875 -2.425781 0.175781 -2.445312 0.1875 -2.46875 C 0.195312 -2.488281 0.210938 -2.5 0.234375 -2.5 C 0.410156 -2.488281 0.566406 -2.484375 0.703125 -2.484375 L 1.9375 -2.484375 C 2.007812 -2.484375 2.046875 -2.453125 2.046875 -2.390625 L 2.0625 -1.84375 C 2.0625 -1.8125 2.046875 -1.789062 2.015625 -1.78125 C 1.992188 -1.769531 1.972656 -1.765625 1.953125 -1.765625 C 1.921875 -1.765625 1.890625 -1.769531 1.859375 -1.78125 C 1.835938 -1.789062 1.828125 -1.804688 1.828125 -1.828125 C 1.804688 -1.960938 1.78125 -2.0625 1.75 -2.125 C 1.726562 -2.1875 1.691406 -2.234375 1.640625 -2.265625 C 1.597656 -2.304688 1.53125 -2.328125 1.4375 -2.328125 L 0.90625 -2.328125 L 0.90625 -1.328125 L 1.625 -1.328125 C 1.644531 -1.328125 1.660156 -1.316406 1.671875 -1.296875 C 1.679688 -1.273438 1.6875 -1.253906 1.6875 -1.234375 C 1.6875 -1.210938 1.679688 -1.191406 1.671875 -1.171875 C 1.660156 -1.160156 1.644531 -1.15625 1.625 -1.15625 L 0.90625 -1.15625 L 0.90625 -0.40625 C 0.914062 -0.351562 0.921875 -0.3125 0.921875 -0.28125 C 0.929688 -0.25 0.957031 -0.21875 1 -0.1875 C 1.039062 -0.164062 1.101562 -0.15625 1.1875 -0.15625 L 1.546875 -0.15625 C 1.640625 -0.15625 1.707031 -0.171875 1.75 -0.203125 C 1.800781 -0.234375 1.835938 -0.273438 1.859375 -0.328125 C 1.890625 -0.390625 1.925781 -0.484375 1.96875 -0.609375 C 1.988281 -0.660156 2.035156 -0.679688 2.109375 -0.671875 C 2.128906 -0.660156 2.148438 -0.644531 2.171875 -0.625 C 2.191406 -0.613281 2.203125 -0.597656 2.203125 -0.578125 L 2.125 -0.078125 C 2.113281 -0.046875 2.097656 -0.0234375 2.078125 -0.015625 C 2.066406 -0.00390625 2.046875 0 2.015625 0 L 0.703125 0 C 0.566406 0 0.410156 0.00390625 0.234375 0.015625 Z M 0.234375 0.015625 "/></g></g></g></g><g clip-path="url(#240f25c918)"><g fill="#ffffff" fill-opacity="1"><g transform="translate(4.323046, 4.295711)"><g><path d="M 0.421875 0.859375 C 0.359375 0.859375 0.3125 0.847656 0.28125 0.828125 C 0.25 0.816406 0.222656 0.789062 0.203125 0.75 C 0.191406 0.71875 0.1875 0.664062 0.1875 0.59375 L 0.1875 -2.609375 C 0.1875 -2.679688 0.191406 -2.734375 0.203125 -2.765625 C 0.222656 -2.804688 0.25 -2.832031 0.28125 -2.84375 C 0.3125 -2.863281 0.359375 -2.867188 0.421875 -2.859375 L 1 -2.859375 C 1.019531 -2.859375 1.039062 -2.847656 1.0625 -2.828125 C 1.082031 -2.816406 1.09375 -2.800781 1.09375 -2.78125 C 1.09375 -2.726562 1.0625 -2.703125 1 -2.703125 L 0.515625 -2.703125 C 0.492188 -2.703125 0.484375 -2.6875 0.484375 -2.65625 L 0.484375 0.640625 C 0.484375 0.671875 0.492188 0.6875 0.515625 0.6875 L 1 0.6875 C 1.03125 0.6875 1.050781 0.691406 1.0625 0.703125 C 1.082031 0.722656 1.09375 0.742188 1.09375 0.765625 C 1.09375 0.796875 1.082031 0.816406 1.0625 0.828125 C 1.050781 0.847656 1.03125 0.859375 1 0.859375 Z M 0.421875 0.859375 "/></g></g></g></g><g fill="#ffffff" fill-opacity="1"><g transform="translate(7.121901, 4.295711)"><g><path d="M 1.203125 0.046875 C 1.117188 -0.171875 0.988281 -0.515625 0.8125 -0.984375 C 0.644531 -1.453125 0.523438 -1.796875 0.453125 -2.015625 C 0.398438 -2.117188 0.351562 -2.191406 0.3125 -2.234375 C 0.269531 -2.285156 0.210938 -2.316406 0.140625 -2.328125 C 0.128906 -2.335938 0.113281 -2.34375 0.09375 -2.34375 C 0.0703125 -2.34375 0.0546875 -2.347656 0.046875 -2.359375 C 0.0351562 -2.378906 0.03125 -2.398438 0.03125 -2.421875 C 0.03125 -2.453125 0.0390625 -2.472656 0.0625 -2.484375 C 0.0820312 -2.492188 0.109375 -2.5 0.140625 -2.5 C 0.335938 -2.5 0.488281 -2.46875 0.59375 -2.40625 C 0.695312 -2.351562 0.773438 -2.25 0.828125 -2.09375 L 1.40625 -0.5625 L 1.421875 -0.5625 L 1.953125 -2.140625 C 1.972656 -2.179688 1.984375 -2.210938 1.984375 -2.234375 C 1.984375 -2.273438 1.96875 -2.300781 1.9375 -2.3125 C 1.90625 -2.320312 1.851562 -2.328125 1.78125 -2.328125 L 1.765625 -2.328125 C 1.734375 -2.328125 1.710938 -2.332031 1.703125 -2.34375 C 1.691406 -2.351562 1.6875 -2.375 1.6875 -2.40625 C 1.6875 -2.425781 1.691406 -2.445312 1.703125 -2.46875 C 1.710938 -2.488281 1.726562 -2.5 1.75 -2.5 C 1.925781 -2.488281 2.070312 -2.484375 2.1875 -2.484375 C 2.238281 -2.484375 2.332031 -2.488281 2.46875 -2.5 L 2.5625 -2.5 C 2.582031 -2.5 2.597656 -2.488281 2.609375 -2.46875 C 2.617188 -2.445312 2.625 -2.425781 2.625 -2.40625 C 2.625 -2.375 2.617188 -2.351562 2.609375 -2.34375 C 2.597656 -2.332031 2.578125 -2.328125 2.546875 -2.328125 C 2.429688 -2.328125 2.34375 -2.304688 2.28125 -2.265625 C 2.226562 -2.234375 2.179688 -2.164062 2.140625 -2.0625 C 2.066406 -1.84375 1.941406 -1.492188 1.765625 -1.015625 C 1.585938 -0.535156 1.457031 -0.179688 1.375 0.046875 Z M 1.203125 0.046875 "/></g></g></g><g clip-path="url(#12c8c33b95)"><g fill="#ffffff" fill-opacity="1"><g transform="translate(11.253176, 4.295711)"><g><path d="M 0.21875 0.859375 C 0.195312 0.859375 0.175781 0.847656 0.15625 0.828125 C 0.144531 0.816406 0.140625 0.796875 0.140625 0.765625 C 0.140625 0.742188 0.144531 0.722656 0.15625 0.703125 C 0.175781 0.691406 0.195312 0.6875 0.21875 0.6875 L 0.703125 0.6875 C 0.722656 0.6875 0.734375 0.671875 0.734375 0.640625 L 0.734375 -2.65625 C 0.734375 -2.6875 0.722656 -2.703125 0.703125 -2.703125 L 0.21875 -2.703125 C 0.164062 -2.703125 0.140625 -2.726562 0.140625 -2.78125 C 0.140625 -2.800781 0.144531 -2.816406 0.15625 -2.828125 C 0.175781 -2.847656 0.195312 -2.859375 0.21875 -2.859375 L 0.796875 -2.859375 C 0.859375 -2.867188 0.90625 -2.863281 0.9375 -2.84375 C 0.976562 -2.832031 1.003906 -2.804688 1.015625 -2.765625 C 1.023438 -2.734375 1.03125 -2.679688 1.03125 -2.609375 L 1.03125 0.59375 C 1.03125 0.664062 1.023438 0.71875 1.015625 0.75 C 1.003906 0.789062 0.976562 0.816406 0.9375 0.828125 C 0.90625 0.847656 0.859375 0.859375 0.796875 0.859375 Z M 0.21875 0.859375 "/></g></g></g></g></g></g><g transform="matrix(1, 0, 0, 1, 52, 17)"><g clip-path="url(#300318329a)"><g clip-path="url(#5d841fb20d)"><g fill="#ffffff" fill-opacity="1"><g transform="translate(8.426298, 43.594188)"><g><path d="M 19.5625 -20.546875 C 19.8125 -20.398438 19.738281 -20.226562 19.34375 -20.03125 L 18.90625 -19.859375 C 18.875 -19.828125 18.816406 -19.851562 18.734375 -19.9375 C 18.671875 -20.03125 18.671875 -20.101562 18.734375 -20.15625 C 18.785156 -20.25 18.796875 -20.300781 18.765625 -20.3125 C 18.742188 -20.320312 18.617188 -20.328125 18.390625 -20.328125 C 18.265625 -20.359375 18.113281 -20.378906 17.9375 -20.390625 C 17.769531 -20.410156 17.613281 -20.4375 17.46875 -20.46875 C 17.269531 -20.5 16.785156 -20.535156 16.015625 -20.578125 C 15.253906 -20.617188 14.375 -20.648438 13.375 -20.671875 C 12.375 -20.703125 11.394531 -20.734375 10.4375 -20.765625 C 9.488281 -20.796875 8.695312 -20.8125 8.0625 -20.8125 L 7.890625 -20.8125 C 7.828125 -20.8125 7.734375 -20.816406 7.609375 -20.828125 C 7.484375 -20.847656 7.332031 -20.84375 7.15625 -20.8125 L 6.9375 -20.6875 C 6.90625 -20.625 6.851562 -20.5625 6.78125 -20.5 C 6.707031 -20.445312 6.644531 -20.378906 6.59375 -20.296875 L 6.203125 -19.90625 C 6.085938 -19.726562 5.941406 -19.5625 5.765625 -19.40625 C 5.585938 -19.25 5.382812 -19.039062 5.15625 -18.78125 L 4.421875 -18 C 4.242188 -17.757812 4.085938 -17.570312 3.953125 -17.4375 C 3.890625 -17.375 3.789062 -17.269531 3.65625 -17.125 C 3.53125 -16.976562 3.394531 -16.832031 3.25 -16.6875 C 2.875 -16.257812 2.582031 -15.921875 2.375 -15.671875 C 2.175781 -15.429688 1.976562 -15.191406 1.78125 -14.953125 L 1.25 -14.390625 L 0.859375 -13.921875 L -0.296875 -12.625 L -1.734375 -10.96875 L -2.421875 -10.140625 C -2.890625 -9.617188 -3.410156 -9 -3.984375 -8.28125 C -4.566406 -7.5625 -5.109375 -6.859375 -5.609375 -6.171875 C -6.117188 -5.492188 -6.519531 -4.953125 -6.8125 -4.546875 C -6.957031 -4.316406 -7.097656 -4.050781 -7.234375 -3.75 C -7.378906 -3.445312 -7.46875 -3.238281 -7.5 -3.125 C -7.5 -2.976562 -7.441406 -2.90625 -7.328125 -2.90625 C -7.210938 -2.875 -7.179688 -2.816406 -7.234375 -2.734375 C -7.265625 -2.671875 -7.367188 -2.640625 -7.546875 -2.640625 C -7.660156 -2.671875 -7.742188 -2.785156 -7.796875 -2.984375 C -7.828125 -3.160156 -7.769531 -3.4375 -7.625 -3.8125 C -7.570312 -3.957031 -7.523438 -4.085938 -7.484375 -4.203125 C -7.441406 -4.316406 -7.421875 -4.359375 -7.421875 -4.328125 C -7.390625 -4.328125 -7.375 -4.375 -7.375 -4.46875 C -7.375 -4.46875 -7.363281 -4.472656 -7.34375 -4.484375 C -7.332031 -4.503906 -7.328125 -4.523438 -7.328125 -4.546875 C -7.265625 -4.523438 -7.222656 -4.570312 -7.203125 -4.6875 C -7.171875 -4.738281 -7.15625 -4.8125 -7.15625 -4.90625 L -7.15625 -4.984375 C -7.09375 -4.953125 -6.832031 -5.253906 -6.375 -5.890625 L -4.59375 -8.28125 L -3.515625 -9.625 C -3.285156 -9.914062 -3.070312 -10.175781 -2.875 -10.40625 C -2.6875 -10.632812 -2.582031 -10.765625 -2.5625 -10.796875 C -2.5 -10.828125 -2.414062 -10.898438 -2.3125 -11.015625 C -2.21875 -11.128906 -2.113281 -11.257812 -2 -11.40625 C -1.644531 -11.863281 -1.394531 -12.171875 -1.25 -12.328125 C -1.113281 -12.492188 -1.03125 -12.578125 -1 -12.578125 C -0.96875 -12.578125 -0.910156 -12.648438 -0.828125 -12.796875 L -0.484375 -13.21875 L -0.125 -13.609375 C 0.332031 -14.160156 0.660156 -14.550781 0.859375 -14.78125 C 1.066406 -15.007812 1.226562 -15.1875 1.34375 -15.3125 C 1.570312 -15.539062 1.6875 -15.671875 1.6875 -15.703125 C 1.6875 -15.671875 1.800781 -15.789062 2.03125 -16.0625 C 2.269531 -16.332031 2.390625 -16.46875 2.390625 -16.46875 C 2.523438 -16.675781 2.78125 -16.992188 3.15625 -17.421875 C 3.539062 -17.859375 3.941406 -18.304688 4.359375 -18.765625 C 4.773438 -19.234375 5.085938 -19.566406 5.296875 -19.765625 L 5.8125 -20.328125 L 5.9375 -20.515625 L 6.0625 -20.59375 C 6.09375 -20.65625 6.125 -20.695312 6.15625 -20.71875 C 6.1875 -20.75 6.21875 -20.78125 6.25 -20.8125 C 5.78125 -20.8125 5.242188 -20.8125 4.640625 -20.8125 C 4.035156 -20.8125 3.628906 -20.796875 3.421875 -20.765625 L 2 -20.6875 L 0.828125 -20.640625 L -0.265625 -20.546875 C -0.785156 -20.523438 -1.269531 -20.488281 -1.71875 -20.4375 C -2.164062 -20.394531 -2.414062 -20.359375 -2.46875 -20.328125 C -2.757812 -20.273438 -3.078125 -20.234375 -3.421875 -20.203125 C -3.773438 -20.171875 -3.960938 -20.171875 -3.984375 -20.203125 C -4.128906 -20.347656 -4 -20.476562 -3.59375 -20.59375 C -3.476562 -20.625 -3.210938 -20.660156 -2.796875 -20.703125 C -2.378906 -20.742188 -1.9375 -20.785156 -1.46875 -20.828125 C -1.007812 -20.878906 -0.664062 -20.90625 -0.4375 -20.90625 L 0.515625 -20.984375 L 6.640625 -21.109375 L 7.15625 -21.671875 L 7.28125 -21.8125 C 7.34375 -21.863281 7.476562 -21.984375 7.6875 -22.171875 C 7.90625 -22.359375 8.113281 -22.550781 8.3125 -22.75 C 8.519531 -22.957031 8.640625 -23.078125 8.671875 -23.109375 C 8.703125 -23.171875 8.921875 -23.359375 9.328125 -23.671875 L 9.71875 -24.015625 C 9.738281 -24.078125 9.84375 -24.179688 10.03125 -24.328125 C 10.21875 -24.472656 10.328125 -24.546875 10.359375 -24.546875 C 10.453125 -24.546875 10.507812 -24.5 10.53125 -24.40625 C 10.59375 -24.289062 10.582031 -24.191406 10.5 -24.109375 L 10.3125 -23.890625 L 9.890625 -23.546875 C 9.742188 -23.429688 9.546875 -23.253906 9.296875 -23.015625 C 9.054688 -22.785156 8.890625 -22.613281 8.796875 -22.5 C 8.628906 -22.300781 8.457031 -22.128906 8.28125 -21.984375 C 8.164062 -21.867188 8.019531 -21.722656 7.84375 -21.546875 C 7.675781 -21.378906 7.5625 -21.25 7.5 -21.15625 L 8.328125 -21.15625 L 9.53125 -21.109375 C 9.738281 -21.109375 10.242188 -21.09375 11.046875 -21.0625 C 11.859375 -21.039062 12.753906 -21.007812 13.734375 -20.96875 C 14.722656 -20.925781 15.617188 -20.890625 16.421875 -20.859375 C 17.234375 -20.828125 17.757812 -20.796875 18 -20.765625 C 18.488281 -20.734375 18.835938 -20.703125 19.046875 -20.671875 C 19.265625 -20.648438 19.4375 -20.609375 19.5625 -20.546875 Z M 19.5625 -20.546875 "/></g></g></g></g><g fill="#ffffff" fill-opacity="1"><g transform="translate(12.849083, 43.594188)"><g><path d="M 15.609375 -23.84375 C 15.785156 -23.644531 15.753906 -23.382812 15.515625 -23.0625 C 15.429688 -22.914062 15.28125 -22.726562 15.0625 -22.5 C 14.84375 -22.269531 14.675781 -22.125 14.5625 -22.0625 L 13.921875 -21.59375 C 13.804688 -21.476562 13.65625 -21.363281 13.46875 -21.25 C 13.28125 -21.132812 13.125 -21.03125 13 -20.9375 L 12.359375 -20.546875 C 12.179688 -20.429688 12.050781 -20.375 11.96875 -20.375 C 11.851562 -20.320312 11.78125 -20.28125 11.75 -20.25 C 11.75 -20.1875 11.675781 -20.128906 11.53125 -20.078125 L 11.265625 -19.984375 C 11.097656 -19.898438 10.800781 -19.75 10.375 -19.53125 C 9.957031 -19.3125 9.519531 -19.09375 9.0625 -18.875 C 8.601562 -18.664062 8.210938 -18.488281 7.890625 -18.34375 C 7.660156 -18.226562 7.503906 -18.171875 7.421875 -18.171875 C 7.328125 -18.171875 7.078125 -18.066406 6.671875 -17.859375 L 5.9375 -17.5625 C 5.90625 -17.53125 5.800781 -17.484375 5.625 -17.421875 C 5.457031 -17.367188 5.226562 -17.269531 4.9375 -17.125 L 3.296875 -16.390625 L 3.078125 -16.265625 L 2.34375 -15.515625 C 1.9375 -15.117188 1.492188 -14.679688 1.015625 -14.203125 C 0.535156 -13.722656 0.269531 -13.425781 0.21875 -13.3125 L 0.21875 -13.21875 C 0.25 -13.195312 0.320312 -13.210938 0.4375 -13.265625 C 0.46875 -13.265625 0.484375 -13.269531 0.484375 -13.28125 C 0.484375 -13.300781 0.492188 -13.3125 0.515625 -13.3125 C 0.691406 -13.394531 0.890625 -13.476562 1.109375 -13.5625 C 1.328125 -13.65625 1.609375 -13.757812 1.953125 -13.875 C 2.410156 -14.019531 2.6875 -14.035156 2.78125 -13.921875 C 2.800781 -13.859375 2.738281 -13.742188 2.59375 -13.578125 C 2.195312 -13.171875 1.953125 -12.878906 1.859375 -12.703125 L 1.828125 -12.578125 C 1.679688 -12.285156 1.632812 -12.140625 1.6875 -12.140625 L 1.78125 -12.140625 L 1.953125 -12.1875 C 2.179688 -12.269531 2.582031 -12.441406 3.15625 -12.703125 C 3.738281 -12.960938 4.175781 -13.148438 4.46875 -13.265625 L 5.546875 -13.75 C 5.640625 -13.75 5.726562 -13.738281 5.8125 -13.71875 C 5.894531 -13.707031 5.835938 -13.628906 5.640625 -13.484375 C 5.378906 -13.398438 5.238281 -13.347656 5.21875 -13.328125 C 5.207031 -13.316406 5.191406 -13.300781 5.171875 -13.28125 C 5.160156 -13.269531 5 -13.191406 4.6875 -13.046875 C 4.570312 -13.015625 4.476562 -12.960938 4.40625 -12.890625 C 4.332031 -12.828125 4.265625 -12.796875 4.203125 -12.796875 C 3.910156 -12.679688 3.742188 -12.597656 3.703125 -12.546875 C 3.660156 -12.503906 3.566406 -12.457031 3.421875 -12.40625 C 3.335938 -12.375 3.078125 -12.265625 2.640625 -12.078125 C 2.210938 -11.890625 1.910156 -11.78125 1.734375 -11.75 L 1.640625 -11.703125 C 1.554688 -11.671875 1.441406 -11.703125 1.296875 -11.796875 C 1.128906 -11.941406 1.113281 -12.1875 1.25 -12.53125 L 1.390625 -12.796875 C 1.441406 -12.929688 1.523438 -13.070312 1.640625 -13.21875 C 1.765625 -13.363281 1.835938 -13.4375 1.859375 -13.4375 C 1.890625 -13.4375 1.90625 -13.453125 1.90625 -13.484375 C 1.90625 -13.515625 1.832031 -13.5 1.6875 -13.4375 L 1.21875 -13.265625 C 0.976562 -13.210938 0.816406 -13.140625 0.734375 -13.046875 L 0.484375 -12.875 L 0.4375 -12.875 L 0.171875 -12.75 L -0.34375 -12.234375 L -0.4375 -12.1875 L -0.5625 -12.09375 L -0.6875 -11.96875 L -0.90625 -11.796875 L -1.046875 -11.703125 C -1.097656 -11.648438 -1.164062 -11.632812 -1.25 -11.65625 C -1.28125 -11.6875 -1.332031 -11.722656 -1.40625 -11.765625 C -1.476562 -11.816406 -1.515625 -11.867188 -1.515625 -11.921875 C -1.515625 -12.003906 -1.476562 -12.085938 -1.40625 -12.171875 C -1.332031 -12.265625 -1.269531 -12.34375 -1.21875 -12.40625 L -0.828125 -12.828125 L -0.4375 -13.3125 L -0.265625 -13.484375 L 1.25 -15.09375 C 1.488281 -15.289062 1.671875 -15.460938 1.796875 -15.609375 C 1.929688 -15.753906 2 -15.828125 2 -15.828125 C 1.96875 -15.859375 1.898438 -15.859375 1.796875 -15.828125 C 1.691406 -15.796875 1.640625 -15.765625 1.640625 -15.734375 C 1.617188 -15.710938 1.582031 -15.703125 1.53125 -15.703125 C 1.488281 -15.703125 1.457031 -15.6875 1.4375 -15.65625 L 0.65625 -15.390625 C 0.414062 -15.335938 0.253906 -15.28125 0.171875 -15.21875 L -0.265625 -15 C -0.492188 -14.945312 -0.632812 -14.921875 -0.6875 -14.921875 C -0.863281 -14.921875 -0.910156 -15.003906 -0.828125 -15.171875 C -0.765625 -15.234375 -0.648438 -15.289062 -0.484375 -15.34375 L 0.859375 -15.828125 L 1.296875 -16 C 1.359375 -16.0625 1.445312 -16.101562 1.5625 -16.125 C 1.738281 -16.21875 1.851562 -16.265625 1.90625 -16.265625 C 1.9375 -16.265625 1.957031 -16.269531 1.96875 -16.28125 C 1.988281 -16.289062 2 -16.296875 2 -16.296875 C 2 -16.296875 2.128906 -16.351562 2.390625 -16.46875 L 2.78125 -16.609375 C 2.832031 -16.660156 2.914062 -16.738281 3.03125 -16.84375 C 3.144531 -16.945312 3.257812 -17.054688 3.375 -17.171875 L 4.859375 -18.46875 L 5.765625 -19.25 L 7.15625 -20.328125 C 7.1875 -20.359375 7.320312 -20.460938 7.5625 -20.640625 C 7.8125 -20.816406 8.066406 -20.988281 8.328125 -21.15625 L 9.0625 -21.640625 L 9.453125 -21.890625 L 9.921875 -22.15625 C 10.941406 -22.738281 11.957031 -23.171875 12.96875 -23.453125 L 13.3125 -23.546875 C 13.539062 -23.660156 13.828125 -23.742188 14.171875 -23.796875 L 14.65625 -23.890625 C 14.882812 -23.953125 15.09375 -23.972656 15.28125 -23.953125 C 15.46875 -23.941406 15.578125 -23.90625 15.609375 -23.84375 Z M 15.171875 -23.203125 C 15.171875 -23.203125 15.175781 -23.210938 15.1875 -23.234375 C 15.207031 -23.265625 15.21875 -23.296875 15.21875 -23.328125 C 15.1875 -23.410156 15.128906 -23.46875 15.046875 -23.5 C 14.984375 -23.53125 14.816406 -23.53125 14.546875 -23.5 C 14.273438 -23.46875 14.109375 -23.4375 14.046875 -23.40625 L 13.359375 -23.203125 C 12.984375 -23.085938 12.535156 -22.929688 12.015625 -22.734375 C 11.492188 -22.546875 11.03125 -22.351562 10.625 -22.15625 C 10.070312 -21.863281 9.492188 -21.519531 8.890625 -21.125 C 8.285156 -20.738281 7.820312 -20.414062 7.5 -20.15625 L 7.15625 -19.90625 C 7.125 -19.90625 6.957031 -19.78125 6.65625 -19.53125 C 6.351562 -19.289062 6.003906 -19.003906 5.609375 -18.671875 C 5.222656 -18.335938 4.882812 -18.039062 4.59375 -17.78125 L 4.078125 -17.34375 C 4.046875 -17.34375 4.03125 -17.300781 4.03125 -17.21875 C 4.03125 -17.1875 4.175781 -17.226562 4.46875 -17.34375 C 4.613281 -17.40625 4.726562 -17.460938 4.8125 -17.515625 C 4.894531 -17.578125 4.953125 -17.609375 4.984375 -17.609375 C 5.046875 -17.609375 5.191406 -17.664062 5.421875 -17.78125 C 5.535156 -17.832031 5.628906 -17.875 5.703125 -17.90625 C 5.773438 -17.9375 5.828125 -17.953125 5.859375 -17.953125 C 5.878906 -17.953125 6.035156 -18.007812 6.328125 -18.125 L 7.28125 -18.515625 L 8.15625 -18.90625 L 8.765625 -19.125 C 8.816406 -19.15625 8.914062 -19.195312 9.0625 -19.25 C 9.207031 -19.3125 9.335938 -19.382812 9.453125 -19.46875 L 10.28125 -19.859375 L 10.75 -20.125 L 11.265625 -20.375 L 12.75 -21.203125 C 13.039062 -21.378906 13.328125 -21.566406 13.609375 -21.765625 C 13.898438 -21.960938 14.101562 -22.125 14.21875 -22.25 L 14.65625 -22.59375 C 14.6875 -22.59375 14.773438 -22.691406 14.921875 -22.890625 Z M 15.171875 -23.203125 "/></g></g></g><g fill="#ffffff" fill-opacity="1"><g transform="translate(19.093009, 43.594188)"><g><path d="M -0.4375 -11.84375 C -0.78125 -11.8125 -0.992188 -11.800781 -1.078125 -11.8125 C -1.171875 -11.832031 -1.226562 -11.910156 -1.25 -12.046875 C -1.3125 -12.191406 -1.253906 -12.410156 -1.078125 -12.703125 C -0.847656 -13.046875 -0.515625 -13.390625 -0.078125 -13.734375 C 0.347656 -14.085938 0.78125 -14.335938 1.21875 -14.484375 C 1.90625 -14.742188 2.296875 -14.757812 2.390625 -14.53125 C 2.410156 -14.414062 2.09375 -14.125 1.4375 -13.65625 C 1.050781 -13.394531 0.734375 -13.195312 0.484375 -13.0625 C 0.242188 -12.9375 0.0078125 -12.847656 -0.21875 -12.796875 C -0.476562 -12.734375 -0.632812 -12.628906 -0.6875 -12.484375 C -0.800781 -12.367188 -0.816406 -12.296875 -0.734375 -12.265625 C -0.472656 -12.179688 0.882812 -12.675781 3.34375 -13.75 L 3.421875 -13.78125 L 3.5625 -13.78125 L 3.59375 -13.75 C 3.707031 -13.6875 3.722656 -13.613281 3.640625 -13.53125 L 3.078125 -13.265625 L 1.125 -12.40625 C 0.75 -12.195312 0.453125 -12.0625 0.234375 -12 C 0.015625 -11.945312 -0.207031 -11.894531 -0.4375 -11.84375 Z M -0.09375 -13.265625 C -0.113281 -13.234375 -0.0625 -13.238281 0.0625 -13.28125 C 0.195312 -13.332031 0.378906 -13.414062 0.609375 -13.53125 C 0.804688 -13.644531 1.023438 -13.78125 1.265625 -13.9375 C 1.515625 -14.09375 1.65625 -14.1875 1.6875 -14.21875 C 1.6875 -14.28125 1.609375 -14.273438 1.453125 -14.203125 C 1.296875 -14.128906 1.144531 -14.0625 1 -14 C 0.851562 -13.976562 0.640625 -13.863281 0.359375 -13.65625 C 0.0859375 -13.457031 -0.0625 -13.328125 -0.09375 -13.265625 Z M -0.09375 -13.265625 "/></g></g></g></g></g></svg>